<svg width="244" height="101" viewBox="0 0 244 101" fill="none" xmlns="http://www.w3.org/2000/svg">
<path d="M217.341 0.408355C217.014 0.220075 216.597 0.332333 216.408 0.659089C216.22 0.985846 216.332 1.40337 216.659 1.59165L217.341 0.408355ZM16.1857 100.679C16.5609 100.717 16.8957 100.444 16.9335 100.068L17.5497 93.9539C17.5875 93.5787 17.314 93.2439 16.9388 93.2061C16.5636 93.1682 16.2287 93.4418 16.1909 93.817L15.6432 99.2521L10.2081 98.7044C9.83283 98.6666 9.49801 98.9401 9.46019 99.3154C9.42238 99.6906 9.69591 100.025 10.0711 100.063L16.1857 100.679ZM216.659 1.59165C225.05 6.42663 231.195 10.554 235.381 14.0714C239.595 17.6125 241.718 20.4496 242.256 22.6814C242.517 23.7668 242.402 24.7024 241.972 25.5367C241.534 26.3857 240.74 27.1843 239.553 27.9235C237.164 29.4105 233.352 30.5527 228.304 31.4048C218.232 33.1052 203.567 33.6023 186.416 33.6629C169.261 33.7234 149.725 33.3485 129.845 33.3172C109.989 33.2859 89.8403 33.5983 71.5641 35.0361C53.2975 36.4731 36.8546 39.0372 24.4297 43.5297C12.0315 48.0126 3.43597 54.491 1.23491 63.8852C-0.960593 73.2557 3.28779 85.2068 15.7253 100.432L16.783 99.568C4.40695 84.4182 0.521609 72.9162 2.56457 64.1968C4.60196 55.5011 12.617 49.2531 24.8941 44.814C37.1444 40.3847 53.4412 37.8316 71.6712 36.3975C89.8918 34.9642 109.997 34.6516 129.843 34.6828C149.667 34.714 169.283 35.0891 186.421 35.0285C203.564 34.968 218.335 34.4729 228.532 32.7514C233.619 31.8927 237.65 30.7165 240.274 29.0829C241.594 28.2617 242.599 27.2995 243.186 26.1627C243.78 25.0112 243.914 23.7362 243.583 22.3616C242.936 19.6735 240.505 16.5936 236.259 13.0258C231.985 9.43426 225.762 5.26087 217.341 0.408355L216.659 1.59165Z" fill="black"/>
<path d="M217.341 0.408355C217.014 0.220075 216.597 0.332333 216.408 0.659089C216.22 0.985846 216.332 1.40337 216.659 1.59165L217.341 0.408355ZM16.1857 100.679C16.5609 100.717 16.8957 100.444 16.9335 100.068L17.5497 93.9539C17.5875 93.5787 17.314 93.2439 16.9388 93.2061C16.5636 93.1682 16.2287 93.4418 16.1909 93.817L15.6432 99.2521L10.2081 98.7044C9.83283 98.6666 9.49801 98.9401 9.46019 99.3154C9.42238 99.6906 9.69591 100.025 10.0711 100.063L16.1857 100.679ZM216.659 1.59165C225.05 6.42663 231.195 10.554 235.381 14.0714C239.595 17.6125 241.718 20.4496 242.256 22.6814C242.517 23.7668 242.402 24.7024 241.972 25.5367C241.534 26.3857 240.74 27.1843 239.553 27.9235C237.164 29.4105 233.352 30.5527 228.304 31.4048C218.232 33.1052 203.567 33.6023 186.416 33.6629C169.261 33.7234 149.725 33.3485 129.845 33.3172C109.989 33.2859 89.8403 33.5983 71.5641 35.0361C53.2975 36.4731 36.8546 39.0372 24.4297 43.5297C12.0315 48.0126 3.43597 54.491 1.23491 63.8852C-0.960593 73.2557 3.28779 85.2068 15.7253 100.432L16.783 99.568C4.40695 84.4182 0.521609 72.9162 2.56457 64.1968C4.60196 55.5011 12.617 49.2531 24.8941 44.814C37.1444 40.3847 53.4412 37.8316 71.6712 36.3975C89.8918 34.9642 109.997 34.6516 129.843 34.6828C149.667 34.714 169.283 35.0891 186.421 35.0285C203.564 34.968 218.335 34.4729 228.532 32.7514C233.619 31.8927 237.65 30.7165 240.274 29.0829C241.594 28.2617 242.599 27.2995 243.186 26.1627C243.78 25.0112 243.914 23.7362 243.583 22.3616C242.936 19.6735 240.505 16.5936 236.259 13.0258C231.985 9.43426 225.762 5.26087 217.341 0.408355L216.659 1.59165Z" fill="url(#paint0_linear_78_35)"/>
<defs>
<linearGradient id="paint0_linear_78_35" x1="135.439" y1="-8.14162" x2="135.439" y2="273.431" gradientUnits="userSpaceOnUse">
<stop stop-color="#FFC800"/>
<stop offset="0.800781" stop-color="#FFDB58"/>
</linearGradient>
</defs>
</svg>
