<svg width="295" height="344" viewBox="0 0 295 344" fill="none" xmlns="http://www.w3.org/2000/svg">
<path d="M3.13479 0.388127C2.24457 -0.238597 1.01485 -0.0249982 0.388127 0.865214C-0.238597 1.75543 -0.0249982 2.98515 0.865214 3.61187L3.13479 0.388127ZM293.97 329.814C294.695 329.002 294.625 327.756 293.814 327.03L280.587 315.206C279.776 314.481 278.529 314.55 277.804 315.362C277.078 316.174 277.148 317.42 277.96 318.145L289.717 328.656L279.206 340.413C278.481 341.224 278.55 342.471 279.362 343.196C280.174 343.922 281.42 343.852 282.145 343.04L293.97 329.814ZM0.865214 3.61187C30.2306 24.2856 48.4608 45.229 59.0121 65.9379C69.556 86.6322 72.4929 107.211 71.0882 127.269C69.6815 147.356 63.9198 166.927 57.0422 185.572C53.604 194.893 49.8982 203.953 46.3261 212.73C42.7596 221.493 39.3234 229.98 36.4541 238.093C30.7377 254.255 27.1405 269.267 29.4081 282.394C31.712 295.731 39.9978 306.79 57.1793 315.118C74.2506 323.392 100.229 329.047 138.272 331.736C176.353 334.428 226.696 334.158 292.61 330.468L292.39 326.532C226.554 330.217 176.397 330.478 138.55 327.803C100.666 325.125 75.2885 319.514 58.8989 311.57C42.6194 303.679 35.3388 293.566 33.2931 281.723C31.2111 269.671 34.4811 255.495 40.1709 239.407C43.0048 231.395 46.4064 222.991 49.9778 214.216C53.5437 205.455 57.2759 196.33 60.7411 186.936C67.6701 168.152 73.5763 148.176 75.0211 127.544C76.4681 106.882 73.44 85.5709 62.525 64.1481C51.6173 42.7398 32.8944 21.3394 3.13479 0.388127L0.865214 3.61187Z" fill="black"/>
<path d="M3.13479 0.388127C2.24457 -0.238597 1.01485 -0.0249982 0.388127 0.865214C-0.238597 1.75543 -0.0249982 2.98515 0.865214 3.61187L3.13479 0.388127ZM293.97 329.814C294.695 329.002 294.625 327.756 293.814 327.03L280.587 315.206C279.776 314.481 278.529 314.55 277.804 315.362C277.078 316.174 277.148 317.42 277.96 318.145L289.717 328.656L279.206 340.413C278.481 341.224 278.55 342.471 279.362 343.196C280.174 343.922 281.42 343.852 282.145 343.04L293.97 329.814ZM0.865214 3.61187C30.2306 24.2856 48.4608 45.229 59.0121 65.9379C69.556 86.6322 72.4929 107.211 71.0882 127.269C69.6815 147.356 63.9198 166.927 57.0422 185.572C53.604 194.893 49.8982 203.953 46.3261 212.73C42.7596 221.493 39.3234 229.98 36.4541 238.093C30.7377 254.255 27.1405 269.267 29.4081 282.394C31.712 295.731 39.9978 306.79 57.1793 315.118C74.2506 323.392 100.229 329.047 138.272 331.736C176.353 334.428 226.696 334.158 292.61 330.468L292.39 326.532C226.554 330.217 176.397 330.478 138.55 327.803C100.666 325.125 75.2885 319.514 58.8989 311.57C42.6194 303.679 35.3388 293.566 33.2931 281.723C31.2111 269.671 34.4811 255.495 40.1709 239.407C43.0048 231.395 46.4064 222.991 49.9778 214.216C53.5437 205.455 57.2759 196.33 60.7411 186.936C67.6701 168.152 73.5763 148.176 75.0211 127.544C76.4681 106.882 73.44 85.5709 62.525 64.1481C51.6173 42.7398 32.8944 21.3394 3.13479 0.388127L0.865214 3.61187Z" fill="url(#paint0_linear_11_82)"/>
<defs>
<linearGradient id="paint0_linear_11_82" x1="-13.6557" y1="249.5" x2="-13.6557" y2="555.439" gradientUnits="userSpaceOnUse">
<stop stop-color="#FFC800"/>
<stop offset="0.800781" stop-color="#FFDB58"/>
</linearGradient>
</defs>
</svg>
