<svg width="101" height="100" viewBox="0 0 101 100" fill="none" xmlns="http://www.w3.org/2000/svg">
<path d="M14.9538 23.412C14.7872 18.5974 18.5392 14.1558 23.6122 14.1558H75.583C80.6559 14.1558 84.408 18.5974 84.2392 23.412C84.0788 28.0391 84.2872 34.0308 85.7955 38.9183C87.308 43.8203 89.8601 46.9183 94.0392 47.3162V51.8308C89.8601 52.2287 87.3101 55.3266 85.7955 60.2287C84.2872 65.1141 84.0788 71.1078 84.2392 75.7349C84.4059 80.5474 80.6538 84.9891 75.583 84.9891H23.6122C18.5413 84.9891 14.7872 80.5474 14.9559 75.7328C15.1163 71.1058 14.908 65.1141 13.3997 60.2266C11.8872 55.3245 9.32882 52.2266 5.14966 51.8287V47.3141C9.32882 46.9162 11.8851 43.8183 13.3997 38.9162C14.9059 34.0308 15.1163 28.0391 14.9538 23.412Z" fill="#7C4DFF"/>
<path d="M56.4271 48.8834V48.8251C60.2875 48.1584 63.3 44.5397 63.3 40.5543C63.3 37.7376 62.2166 35.3501 60.1666 33.6543C58.1229 31.9626 55.2562 31.0688 51.8729 31.0688H36.3792V68.9168H51.9521C55.9979 68.9168 59.3583 67.9293 61.6666 66.0584C63.9771 64.1855 65.2 61.4605 65.2 58.1772C65.1979 53.2168 61.6771 49.4918 56.4271 48.8834ZM49.1708 47.1001H42.5437V36.0209H50.4271C54.7521 36.0209 57.1333 37.9188 57.1333 41.3647C57.1354 45.0626 54.3062 47.1001 49.1708 47.1001ZM42.5437 51.7376H50.375C56.0333 51.7376 58.9 53.7813 58.9 57.8126C58.9 61.8376 56.0729 63.9647 50.7229 63.9647H42.5437V51.7376Z" fill="white"/>
</svg>

