<svg width="101" height="101" viewBox="0 0 101 101" fill="none" xmlns="http://www.w3.org/2000/svg">
<path d="M85.5816 10.8169L14.7483 10.8169L20.9983 81.6502L50.165 89.9836L79.3316 81.6502L85.5816 10.8169Z" fill="#0277BD"/>
<path d="M50.165 17.0669V83.5252L73.4984 76.8586L78.7067 17.0669H50.165Z" fill="#039BE5"/>
<path d="M69.1234 27.4834H50.165V35.8167H60.3734L59.7484 44.1501H50.165V52.4834H59.3317L58.7067 61.8584L50.165 64.7751V73.5251L66.6234 68.1084L68.0817 44.1501L69.1234 27.4834Z" fill="white"/>
<path d="M50.165 27.4834V35.8167H31.6233L30.9983 27.4834H50.165ZM40.5816 44.1501L40.9983 52.4834H50.165V44.1501H40.5816ZM41.415 56.6501H33.0816L33.7066 68.1084L50.165 73.5251V64.7751L41.6233 61.8584L41.415 56.6501Z" fill="#EEEEEE"/>
</svg>

