<svg width="234" height="234" viewBox="0 0 234 234" fill="none" xmlns="http://www.w3.org/2000/svg">
<path d="M116.762 0C52.2603 0 0 52.2603 0 116.762C0 181.263 52.2603 233.523 116.762 233.523C181.263 233.523 233.523 181.263 233.523 116.762C233.523 52.2603 181.263 0 116.762 0ZM116.762 45.1981C139.643 45.1981 158.193 63.7481 158.193 86.6297C158.193 109.511 139.643 128.061 116.762 128.061C93.8802 128.061 75.3301 109.511 75.3301 86.6297C75.3301 63.7481 93.8802 45.1981 116.762 45.1981ZM116.762 207.158C89.125 207.158 64.3602 194.634 47.7876 175.048C56.6389 158.382 73.9648 146.894 94.1627 146.894C95.2926 146.894 96.4226 147.082 97.5055 147.412C103.626 149.389 110.029 150.66 116.762 150.66C123.494 150.66 129.945 149.389 136.018 147.412C137.101 147.082 138.231 146.894 139.361 146.894C159.559 146.894 176.885 158.382 185.736 175.048C169.163 194.634 144.398 207.158 116.762 207.158Z" fill="url(#paint0_linear_148_7)"/>
<defs>
<linearGradient id="paint0_linear_148_7" x1="6.83102" y1="132.225" x2="6.831" y2="321.223" gradientUnits="userSpaceOnUse">
<stop stop-color="#FFC800"/>
<stop offset="0.800781" stop-color="#FFDB58"/>
</linearGradient>
</defs>
</svg>
