<svg width="57" height="58" viewBox="0 0 57 58" fill="none" xmlns="http://www.w3.org/2000/svg">
<path d="M51.6137 0.632812H5.19807C2.34866 0.632812 0.0407715 2.9407 0.0407715 5.79011V52.2058C0.0407715 55.0552 2.34866 57.363 5.19807 57.363H30.9845V34.1552H23.2486V26.4193H30.9845V22.2651C30.9845 14.4002 34.8164 10.9474 41.3533 10.9474C44.4838 10.9474 46.1392 11.1795 46.9232 11.2852V18.6833H42.4647C39.69 18.6833 38.7205 20.148 38.7205 23.1135V26.4193H46.8535L45.7499 34.1552H38.7205V57.363H51.6137C54.4631 57.363 56.771 55.0552 56.771 52.2058V5.79011C56.771 2.9407 54.4605 0.632812 51.6137 0.632812Z" fill="#FAF9F6"/>
</svg>
