<svg width="101" height="100" viewBox="0 0 101 100" fill="none" xmlns="http://www.w3.org/2000/svg">
<path d="M54.4514 35.4115H37.7847C29.7306 35.4115 23.2014 28.8824 23.2014 20.8282C23.2014 12.774 29.7306 6.24487 37.7847 6.24487H54.4514V35.4115Z" fill="#E64A19"/>
<path d="M52.3681 64.5783H37.7847C29.7306 64.5783 23.2014 58.0491 23.2014 49.995C23.2014 41.9408 29.7306 35.4116 37.7847 35.4116H52.3681V64.5783Z" fill="#7C4DFF"/>
<path d="M37.7847 93.7448C29.7306 93.7448 23.2014 87.2156 23.2014 79.1615C23.2014 71.1073 29.7306 64.5781 37.7847 64.5781H52.3681V79.1615C52.3681 87.2156 45.8389 93.7448 37.7847 93.7448Z" fill="#66BB6A"/>
<path d="M66.9513 35.4115H52.3679V6.24487H66.9513C75.0054 6.24487 81.5346 12.774 81.5346 20.8282C81.5346 28.8824 75.0054 35.4115 66.9513 35.4115Z" fill="#FF7043"/>
<path d="M66.9513 64.5783C75.0054 64.5783 81.5346 58.0491 81.5346 49.995C81.5346 41.9408 75.0054 35.4116 66.9513 35.4116C58.8971 35.4116 52.3679 41.9408 52.3679 49.995C52.3679 58.0491 58.8971 64.5783 66.9513 64.5783Z" fill="#29B6F6"/>
</svg>
