<svg width="101" height="101" viewBox="0 0 101 101" fill="none" xmlns="http://www.w3.org/2000/svg">
<path d="M16.8398 77.4107L48.5773 17.9023C49.2461 16.6482 51.0544 16.6711 51.6898 17.944L62.6732 39.9107L16.8398 77.4107Z" fill="#FF8F00"/>
<path d="M16.8398 77.3941L28.394 6.14623C28.6961 4.28165 31.2003 3.87748 32.0753 5.55248L54.3398 48.2275L16.8398 77.3941Z" fill="#FFA000"/>
<path d="M16.8564 77.3816L17.2731 77.0545L53.7919 47.1775L43.4919 27.4358L16.8564 77.3816Z" fill="#FF6F00"/>
<path d="M16.8398 77.4108L72.394 23.842C73.5586 22.7191 75.5023 23.3816 75.7398 24.9816L83.5065 77.4108L52.2565 95.6253C50.9878 96.3378 49.4398 96.3378 48.1711 95.6253L16.8398 77.4108Z" fill="#FFC400"/>
</svg>

