<svg width="101" height="101" viewBox="0 0 101 101" fill="none" xmlns="http://www.w3.org/2000/svg">
<path d="M85.8819 10.8723H15.0486L21.2986 81.7056L50.4652 90.039L79.6319 81.7056L85.8819 10.8723Z" fill="#E65100"/>
<path d="M50.0488 17.5391V83.9974L73.3822 77.3307L78.5905 17.5391H50.0488Z" fill="#FF6D00"/>
<path d="M50.0488 52.9556V44.6222H67.9655L66.5072 68.5806L50.0488 73.9972V65.2472L58.5905 62.3306L59.2155 52.9556H50.0488ZM68.5905 36.2889L69.2155 27.9556H50.0488V36.2889H68.5905Z" fill="white"/>
<path d="M50.0489 65.2472V73.9972L33.5906 68.5806L32.7572 57.1222H41.0906L41.5072 62.3306L50.0489 65.2472ZM39.8406 36.2889H50.0489V27.9556H31.0906L32.5489 52.9556H50.0489V44.6222H40.4656L39.8406 36.2889Z" fill="#EEEEEE"/>
</svg>
