<svg width="111" height="111" viewBox="0 0 111 111" fill="none" xmlns="http://www.w3.org/2000/svg">
<path d="M13.9551 97.028V14.2322H96.7509V97.028H13.9551Z" fill="#FFD600"/>
<path d="M68.0898 76.2071C69.6813 78.7922 71.4108 81.2691 75.0745 81.2691C78.1517 81.2691 79.7663 79.7397 79.7663 77.6238C79.7663 75.0916 78.0965 74.1924 74.7111 72.7182L72.8551 71.927C67.4987 69.6547 63.9362 66.8075 63.9362 60.7933C63.9362 55.2506 68.1794 51.0326 74.81 51.0326C79.5317 51.0326 82.924 52.6678 85.3711 56.9502L79.5892 60.6461C78.3173 58.3738 76.942 57.4791 74.81 57.4791C72.6343 57.4791 71.2567 58.8522 71.2567 60.6461C71.2567 62.8632 72.6366 63.7601 75.822 65.1332L77.678 65.9243C83.9911 68.6129 87.5514 71.3589 87.5514 77.5318C87.5514 84.1831 82.2984 87.8284 75.247 87.8284C68.3496 87.8284 64.4329 84.3671 62.2527 80.0824L68.0898 76.2071ZM41.4433 76.3957C42.6071 78.4794 44.3757 80.0824 46.9193 80.0824C49.3526 80.0824 50.7532 79.121 50.7532 75.3837V51.0303H58.4187V76.5613C58.4187 84.305 53.9271 87.8284 47.3678 87.8284C41.441 87.8284 37.1632 83.8128 35.4199 80.0824L41.4433 76.3957Z" fill="#000001"/>
</svg>

