<svg width="104" height="57" viewBox="0 0 104 57" fill="none" xmlns="http://www.w3.org/2000/svg">
            <path d="M92.888 20.206C93.3234 21.1368 94.4309 21.5385 95.3618 21.1031C96.2926 20.6677 96.6942 19.5602 96.2588 18.6294L92.888 20.206ZM83.5234 8.76385L82.7971 10.4769L83.5234 8.76385ZM68.1831 8.22898L67.5779 6.4695L68.1831 8.22898ZM56.4179 18.0873L58.0443 18.9911L58.0443 18.9911L56.4179 18.0873ZM54.2598 33.2844L52.4461 33.6997L54.2598 33.2844ZM62.8153 46.0285L61.7442 47.5499L61.7442 47.5499L62.8153 46.0285ZM91.2772 42.6292L89.8779 41.4028L89.8779 41.4028L91.2772 42.6292ZM96.5908 28.2287L80.0714 41.9661L100.228 49.4036L96.5908 28.2287ZM96.2588 18.6294C93.8221 13.4198 89.5446 9.29571 84.2497 7.05079L82.7971 10.4769C87.2463 12.3632 90.8406 15.8286 92.888 20.206L96.2588 18.6294ZM84.2497 7.05079C78.9547 4.80587 73.0164 4.59882 67.5779 6.4695L68.7884 9.98846C73.3581 8.41659 78.3479 8.59056 82.7971 10.4769L84.2497 7.05079ZM67.5779 6.4695C62.1394 8.34019 57.5851 12.1564 54.7915 17.1835L58.0443 18.9911C60.3917 14.767 64.2186 11.5603 68.7884 9.98846L67.5779 6.4695ZM54.7915 17.1835C51.9979 22.2107 51.1625 28.0935 52.4461 33.6997L56.0735 32.8691C54.9949 28.1585 55.6969 23.2153 58.0443 18.9911L54.7915 17.1835ZM52.4461 33.6997C53.7297 39.3058 57.0415 44.2391 61.7442 47.5499L63.8865 44.507C59.9349 41.7251 57.1521 37.5798 56.0735 32.8691L52.4461 33.6997ZM61.7442 47.5499C66.4469 50.8607 72.208 52.3151 77.9186 51.633L77.4773 47.938C72.6789 48.5111 67.838 47.289 63.8865 44.507L61.7442 47.5499ZM77.9186 51.633C83.6293 50.951 88.8858 48.1807 92.6765 43.8555L89.8779 41.4028C86.6927 45.0371 82.2758 47.3649 77.4773 47.938L77.9186 51.633Z" fill="url(#paint0_linear_8_21)"/>
            <path d="M46.6558 48.6306V50.4913C47.5048 50.4913 48.2461 49.9166 48.4577 49.0944C48.6693 48.2722 48.2976 47.4111 47.5541 47.0012L46.6558 48.6306ZM2 46.77C0.972387 46.77 0.139342 47.603 0.139342 48.6306C0.139342 49.6583 0.972387 50.4913 2 50.4913V46.77ZM2 6.76584C0.972387 6.76584 0.139342 7.59888 0.139342 8.6265C0.139342 9.65411 0.972387 10.4872 2 10.4872V6.76584ZM46.6558 8.6265L47.5541 10.256C48.2976 9.84608 48.6693 8.9849 48.4577 8.16271C48.2461 7.34052 47.5048 6.76584 46.6558 6.76584V8.6265ZM10.373 28.6286L9.47467 26.9991C8.881 27.3264 8.5123 27.9507 8.5123 28.6286C8.5123 29.3065 8.881 29.9307 9.47467 30.258L10.373 28.6286ZM46.6558 46.77H2V50.4913H46.6558V46.77ZM2 10.4872H24.3279V6.76584H2V10.4872ZM24.3279 10.4872H46.6558V6.76584H24.3279V10.4872ZM45.7575 6.99704L9.47467 26.9991L11.2713 30.258L47.5541 10.256L45.7575 6.99704ZM9.47467 30.258L45.7575 50.2601L47.5541 47.0012L11.2713 26.9991L9.47467 30.258Z" fill="url(#paint1_linear_8_21)"/>
            <defs>
            <linearGradient id="paint0_linear_8_21" x1="66.0734" y1="9.08236" x2="84.2381" y2="47.9177" gradientUnits="userSpaceOnUse">
            <stop stop-color="#FFC800"/>
            <stop offset="0.830781" stop-color="#FFDB58"/>
            </linearGradient>
            <linearGradient id="paint1_linear_8_21" x1="24.3279" y1="8.6265" x2="24.3279" y2="48.6306" gradientUnits="userSpaceOnUse">
            <stop stop-color="#FFC800"/>
            <stop offset="0.830781" stop-color="#FFDB58"/>
            </linearGradient>
            </defs>
            </svg>