<svg width="49" height="45" viewBox="0 0 49 45" fill="none" xmlns="http://www.w3.org/2000/svg">
<path d="M46.6558 42.6306V44.4913C47.5048 44.4913 48.2461 43.9166 48.4577 43.0944C48.6693 42.2722 48.2976 41.4111 47.5541 41.0012L46.6558 42.6306ZM2 40.77C0.972387 40.77 0.139342 41.603 0.139342 42.6306C0.139342 43.6583 0.972387 44.4913 2 44.4913V40.77ZM2 0.765837C0.972387 0.765837 0.139342 1.59888 0.139342 2.6265C0.139342 3.65411 0.972387 4.48715 2 4.48715V0.765837ZM46.6558 2.6265L47.5541 4.25595C48.2976 3.84608 48.6693 2.9849 48.4577 2.16271C48.2461 1.34052 47.5048 0.765837 46.6558 0.765837V2.6265ZM10.373 22.6286L9.47467 20.9991C8.881 21.3264 8.5123 21.9507 8.5123 22.6286C8.5123 23.3065 8.881 23.9307 9.47467 24.258L10.373 22.6286ZM46.6558 40.77H2V44.4913H46.6558V40.77ZM2 4.48715H24.3279V0.765837H2V4.48715ZM24.3279 4.48715H46.6558V0.765837H24.3279V4.48715ZM45.7575 0.99704L9.47467 20.9991L11.2713 24.258L47.5541 4.25595L45.7575 0.99704ZM9.47467 24.258L45.7575 44.2601L47.5541 41.0012L11.2713 20.9991L9.47467 24.258Z" fill="url(#paint0_linear_8_19)"/>
<defs>
<linearGradient id="paint0_linear_8_19" x1="24.3279" y1="2.6265" x2="24.3279" y2="42.6306" gradientUnits="userSpaceOnUse">
<stop stop-color="#FFC800"/>
<stop offset="0.830781" stop-color="#FFDB58"/>
</linearGradient>
</defs>
</svg>
