<svg width="134" height="134" viewBox="0 0 134 134" fill="none" xmlns="http://www.w3.org/2000/svg">
<g clip-path="url(#clip0_10_29)">
<path d="M69.6486 28.2602C67.8131 27.3776 65.9132 26.9699 63.9877 27.113C57.9662 27.5678 52.9838 33.3363 49.9647 42.0492C40.7522 41.6883 33.5676 44.2249 30.9512 49.6664C28.3348 55.1078 30.8397 62.3034 36.8741 69.2738C31.9544 77.0725 30.5592 84.5663 33.9639 89.5535C35.0515 91.1454 36.5563 92.3749 38.3948 93.2589C42.308 95.1405 47.7751 95.3513 53.9379 94.1661C56.8608 99.72 60.4447 103.861 64.3579 105.743C66.1934 106.626 68.0934 107.033 70.0189 106.89C76.0403 106.435 81.0227 100.667 84.0419 91.9539C93.2515 92.3134 100.434 89.7742 103.049 84.3339C105.666 78.8925 103.161 71.6969 97.1266 64.7265C102.046 56.9278 103.441 49.434 100.037 44.4468C98.9506 42.8519 97.4444 41.6254 95.6059 40.7414C91.6927 38.8598 86.2255 38.649 80.0627 39.8342C77.14 34.2804 73.5605 30.1411 69.6486 28.2602ZM67.1208 33.5173C69.4689 34.6464 71.9737 37.388 74.2328 41.322C71.3512 42.2395 68.3871 43.4331 65.3807 44.9035C62.1426 43.8813 58.982 43.1412 55.9552 42.6614C56.0292 42.471 56.0881 42.2623 56.1645 42.0757C58.4142 36.5739 61.5053 33.1525 64.4269 32.93C65.2907 32.8644 66.1685 33.0594 67.1208 33.5173ZM93.078 45.9985C94.0273 46.455 94.7308 47.0204 95.2189 47.7359C96.8709 50.154 96.1272 54.7077 93.2346 59.9004C93.1365 60.0766 93.0104 60.253 92.9079 60.4296C90.6417 58.3637 88.0877 56.3567 85.2652 54.4647C84.5362 51.1986 83.6238 48.1403 82.541 45.3169C87.024 44.6252 90.7312 44.8701 93.078 45.9985ZM76.7816 46.658C77.2396 47.7908 77.6715 48.963 78.077 50.2138C77.2797 49.7968 76.4915 49.3719 75.6672 48.9756C74.845 48.5802 74.0228 48.231 73.2012 47.8693C74.4302 47.4056 75.612 47.0073 76.7816 46.658ZM73.1394 54.2327C75.6288 55.4298 77.9215 56.7035 80.0438 58.0222C80.5168 60.5345 80.9189 63.1435 81.1299 65.9345C81.332 68.6098 81.3704 71.2671 81.2815 73.8671C79.3055 75.5612 77.2051 77.1942 74.988 78.7078C72.6832 80.2814 70.4037 81.5854 68.1527 82.7823C65.7128 81.9214 63.2652 80.9234 60.8613 79.7675C58.3718 78.5705 56.0792 77.2968 53.9569 75.9781C53.4839 73.4658 53.0789 70.8627 52.868 68.0717C52.6658 65.3948 52.63 62.7347 52.7192 60.1332C54.6942 58.4401 56.7941 56.811 59.0099 55.2984C61.3151 53.725 63.5967 52.4147 65.848 51.218C68.2878 52.0789 70.7355 53.0768 73.1394 54.2327ZM86.6156 62.7137C87.6691 63.5745 88.6655 64.4361 89.5762 65.3003C88.802 66.2856 87.9632 67.2659 87.0795 68.2391C87.0417 67.3278 87.0168 66.4199 86.9469 65.4952C86.8748 64.544 86.7191 63.6457 86.6156 62.7137ZM58.0915 49.0054C57.3014 49.5051 56.5061 49.9445 55.7207 50.4805C54.9549 51.0034 54.23 51.5506 53.4947 52.0902C53.7034 50.7896 53.9411 49.5187 54.2281 48.2963C55.4917 48.4772 56.7822 48.7199 58.0915 49.0054ZM48.3537 47.8484C47.7016 50.8252 47.2476 54.0178 47.0189 57.3851C44.5372 59.6607 42.3332 62.0056 40.4178 64.3679C36.4009 59.3261 34.9714 54.7668 36.2084 52.1942C37.4781 49.5536 41.7846 47.9193 47.7274 47.829C47.9303 47.8258 48.1482 47.8479 48.3537 47.8484ZM93.5829 69.6324C97.5997 74.6742 99.0293 79.2335 97.7923 81.8061C96.5226 84.4467 92.2161 86.081 86.2733 86.1713C86.0704 86.1745 85.8525 86.1523 85.647 86.1519C86.2994 83.1733 86.7619 79.9816 86.9905 76.6122C89.4697 74.3383 91.6691 71.9927 93.5829 69.6324ZM69.8893 60.992C66.5698 59.3958 62.5883 60.7917 60.9921 64.1112C59.396 67.4307 60.7919 71.4122 64.1114 73.0083C67.4309 74.6045 71.4124 73.2086 73.0085 69.8891C74.6047 66.5696 73.2088 62.5881 69.8893 60.992ZM46.9212 65.7612C46.9589 66.6728 46.9897 67.5829 47.0597 68.5079C47.1315 69.4583 47.2818 70.3553 47.3851 71.2866C46.3316 70.4258 45.3351 69.5642 44.4245 68.7C45.1992 67.7141 46.0369 66.735 46.9212 65.7612ZM80.5032 81.9159C80.2946 83.2153 80.0592 84.4828 79.7726 85.7039C78.509 85.5231 77.2185 85.2804 75.9092 84.9949C76.6992 84.4952 77.4946 84.0557 78.28 83.5198C79.0442 82.9979 79.7693 82.4544 80.5032 81.9159ZM41.0928 73.5707C43.359 75.6366 45.913 77.6436 48.7355 79.5356C49.4645 82.8031 50.3735 85.8647 51.4568 88.6893C46.974 89.3807 43.2678 89.1366 40.9198 88.0076C39.9705 87.5512 39.2699 86.9799 38.7818 86.2644C37.1298 83.8463 37.8707 79.2985 40.7633 74.1057C40.8624 73.9277 40.9892 73.7491 41.0928 73.5707ZM78.0455 91.3389C77.9707 91.5313 77.9105 91.7419 77.8333 91.9304C75.5836 97.4323 72.4954 100.848 69.5737 101.07C68.71 101.136 67.8294 100.947 66.8771 100.489C64.5291 99.3598 62.024 96.6178 59.765 92.6842C62.648 91.7665 65.6121 90.5679 68.62 89.0968C71.8581 90.119 75.0187 90.8591 78.0455 91.3389ZM55.9237 83.7865C56.721 84.2034 57.5092 84.6284 58.3334 85.0247C59.1577 85.421 59.9818 85.7713 60.8053 86.1338C59.5752 86.5981 58.3898 86.9927 57.2191 87.3423C56.7611 86.2095 56.3291 85.0373 55.9237 83.7865Z" fill="#4299FF"/>
</g>
<defs>
<clipPath id="clip0_10_29">
<rect width="100" height="100" fill="white" transform="translate(43.6062 0.271484) rotate(25.68)"/>
</clipPath>
</defs>
</svg>
