<svg width="101" height="101" viewBox="0 0 101 101" fill="none" xmlns="http://www.w3.org/2000/svg">
<path d="M48.363 8.51782C34.5776 8.51782 23.363 23.6637 23.363 42.2782C23.363 52.3491 26.6589 61.3803 31.8589 67.5616C31.7589 68.0053 31.6964 68.4616 31.6964 68.9345C31.6964 72.3866 34.4943 75.1845 37.9464 75.1845C41.3985 75.1845 44.1964 72.3866 44.1964 68.9345C44.1964 65.4824 41.3985 62.6845 37.9464 62.6845C37.2901 62.6845 36.6714 62.8137 36.0776 63.0012C32.1255 57.9574 29.613 50.5491 29.613 42.2782C29.613 27.1095 38.0235 14.7678 48.363 14.7678C56.3568 14.7678 63.1776 22.1574 65.8714 32.5137C68.2089 33.2345 70.5318 34.1428 72.8089 35.2387C70.4026 19.9928 60.361 8.51782 48.363 8.51782Z" fill="#7E57C2"/>
<path d="M74.4192 42.0262C66.1963 37.0428 56.9734 34.8553 49.04 35.8616C47.8942 34.4428 46.1609 33.5178 44.1963 33.5178C40.7442 33.5178 37.9463 36.3157 37.9463 39.7678C37.9463 43.2199 40.7442 46.0178 44.1963 46.0178C46.8463 46.0178 49.0984 44.3616 50.0067 42.0345C56.5025 41.2449 64.1984 43.1407 71.1796 47.3741C84.5192 55.4595 91.3255 69.3928 86.3505 78.4387C84.6275 81.572 81.588 83.797 77.563 84.8762C72.8005 86.1491 67.1317 85.697 61.465 83.7762C59.7171 85.3845 57.8213 86.897 55.788 88.2928C61.1046 90.6199 66.613 91.8428 71.765 91.8428C74.3484 91.8428 76.8442 91.5366 79.1796 90.9116C84.89 89.3845 89.265 86.1116 91.8275 81.4491C98.3963 69.5095 90.5859 51.8241 74.4192 42.0262Z" fill="#7E57C2"/>
<path d="M73.3629 60.5847C73.3629 57.143 70.565 54.3513 67.1129 54.3513C63.6608 54.3513 60.8629 57.143 60.8629 60.5847C60.8629 61.9784 61.3379 63.2534 62.1129 64.2909C59.4483 70.1284 54.3129 75.8888 47.4004 80.0784C39.3483 84.9618 30.3483 86.7493 23.3275 84.8743C19.3025 83.7951 16.2629 81.5701 14.54 78.4368C10.9941 71.9909 13.4546 63.0701 19.9775 55.5451C19.3046 53.1618 18.8066 50.6701 18.5066 48.0972C7.94414 58.0909 3.69622 71.6868 9.06497 81.4493C11.6275 86.1118 16.0025 89.3847 21.7129 90.9118C24.0483 91.5368 26.5421 91.843 29.1275 91.843C36.0983 91.843 43.7254 89.618 50.64 85.4263C58.6316 80.5826 64.5629 73.8076 67.7421 66.7555C70.8941 66.4368 73.3629 63.8118 73.3629 60.5847Z" fill="#7E57C2"/>
</svg>

