<svg width="100" height="101" viewBox="0 0 100 101" fill="none" xmlns="http://www.w3.org/2000/svg">
<path d="M82.8847 55.8898C79.6806 55.9064 76.9056 56.6752 74.5806 57.8231C73.7306 56.1252 72.8681 54.6314 72.7243 53.521C72.5556 52.2252 72.3597 51.4502 72.5639 49.9064C72.768 48.3627 73.6618 46.1752 73.6493 46.0106C73.6368 45.846 73.4493 45.0606 71.6014 45.046C69.7535 45.0335 68.1722 45.4023 67.9868 45.8898C67.8014 46.3773 67.4451 47.4752 67.2243 48.621C66.9014 50.296 63.5347 56.2731 61.6243 59.3981C60.9993 58.1773 60.4681 57.1023 60.3576 56.2523C60.1889 54.9564 59.9931 54.1814 60.1972 52.6377C60.4014 51.0939 61.2951 48.9064 61.2826 48.7418C61.2701 48.5773 61.0826 47.7918 59.2347 47.7773C57.3868 47.7648 55.8056 48.1335 55.6201 48.621C55.4347 49.1085 55.2347 50.2481 54.8576 51.3523C54.4785 52.4543 50.0056 62.4231 48.8326 65.0085C48.2347 66.3252 47.716 67.3835 47.3493 68.1043L47.3472 68.1002C47.3472 68.1002 47.3243 68.1481 47.2868 68.2293C46.9722 68.8439 46.7868 69.1835 46.7868 69.1835C46.7868 69.1835 46.7889 69.1877 46.7931 69.196C46.5431 69.6481 46.2764 70.0668 46.1451 70.0668C46.0535 70.0668 45.8681 68.8648 46.1847 67.2148C46.8514 63.7564 48.4493 58.3648 48.4347 58.1773C48.4264 58.0814 48.7326 57.1418 47.391 56.6502C46.0868 56.1731 45.6222 56.9689 45.5035 56.971C45.3889 56.9731 45.3035 57.2523 45.3035 57.2523C45.3035 57.2523 46.7556 51.1877 42.5326 51.1877C39.891 51.1877 36.2326 54.0773 34.4306 56.696C33.2931 57.3168 30.8576 58.646 28.2764 60.0648C27.2847 60.6106 26.2722 61.1668 25.3118 61.696C25.2472 61.6231 25.1806 61.5523 25.1139 61.4793C19.991 56.0148 10.5243 52.1502 10.9243 44.8023C11.0701 42.1314 11.9993 35.0981 29.1181 26.5689C43.141 19.5814 54.3681 21.5044 56.3076 25.7648C59.0785 31.8544 50.3076 43.1689 35.7451 44.8023C30.1972 45.4252 27.2743 43.2731 26.5472 42.4731C25.7826 41.6294 25.6681 41.5919 25.3826 41.7502C24.9181 42.0085 25.2118 42.7523 25.3826 43.196C25.8181 44.3273 27.6014 46.3335 30.6431 47.3335C33.3201 48.2127 39.8347 48.6939 47.7118 45.646C56.5368 42.2335 63.4264 32.7377 61.4014 24.8023C59.3431 16.7314 45.9597 14.0773 33.2931 18.5773C25.7451 21.2564 17.5847 25.4606 11.716 30.9481C4.7389 37.4731 3.6264 43.1543 4.08473 45.5273C5.7139 53.9606 17.3368 59.4523 21.991 63.521C21.7618 63.6481 21.5451 63.7668 21.3493 63.8752C19.016 65.0293 10.1556 69.6668 7.9389 74.5648C5.42431 80.121 8.3389 84.1085 10.2681 84.646C16.2451 86.3085 22.3785 83.3168 25.6764 78.4002C28.9722 73.4856 28.5701 67.0835 27.0576 64.1627C27.0389 64.1273 27.0181 64.0918 26.9993 64.0543C27.6014 63.6981 28.216 63.3356 28.8243 62.9773C30.0118 62.2793 31.1785 61.6293 32.1889 61.0793C31.6222 62.6293 31.2076 64.4898 30.9931 67.1752C30.7389 70.3293 32.0326 74.4064 33.7243 76.0106C34.4701 76.7168 35.366 76.7335 35.9326 76.7335C37.9014 76.7335 38.7993 75.096 39.7889 73.1585C41.0014 70.7835 42.0785 68.0168 42.0785 68.0168C42.0785 68.0168 40.7285 75.4877 44.4076 75.4877C45.7493 75.4877 47.0972 73.7481 47.6993 72.8627C47.7014 72.8731 47.7014 72.8773 47.7014 72.8773C47.7014 72.8773 47.7368 72.8189 47.8056 72.7043C47.9451 72.4918 48.0243 72.3564 48.0243 72.3564C48.0243 72.3564 48.0264 72.3418 48.0306 72.3168C48.5701 71.3814 49.766 69.2481 51.5576 65.7293C53.8743 61.1835 56.0951 55.4877 56.0951 55.4877C56.0951 55.4877 56.3014 56.8794 56.9785 59.1835C57.3764 60.5377 58.2222 62.0356 58.891 63.4731C58.3535 64.2189 58.0243 64.646 58.0243 64.646C58.0243 64.646 58.0264 64.6543 58.0326 64.6689C57.6035 65.2398 57.1222 65.8543 56.6181 66.4543C54.7889 68.6314 52.6118 71.1189 52.3201 71.8356C51.9764 72.6814 52.0576 73.3023 52.7222 73.8043C53.2076 74.1689 54.0701 74.2273 54.9722 74.1668C56.616 74.0564 57.7701 73.6481 58.341 73.4002C59.2306 73.0856 60.266 72.5918 61.2368 71.8773C63.0306 70.5585 64.1118 68.6731 64.0076 66.1731C63.9493 64.796 63.5118 63.4314 62.9556 62.1439C63.1181 61.9106 63.2806 61.6731 63.4451 61.4356C66.2722 57.3023 68.466 52.7606 68.466 52.7606C68.466 52.7606 68.6722 54.1523 69.3493 56.4564C69.691 57.621 70.3681 58.8939 70.9764 60.1398C68.3181 62.3002 66.6701 64.8106 66.0972 66.4564C65.0389 69.5023 65.8681 70.8814 67.4222 71.196C68.1264 71.3377 69.1222 71.0148 69.8701 70.6981C70.8014 70.3898 71.9201 69.8752 72.966 69.1064C74.7597 67.7877 76.4847 65.9418 76.3805 63.4439C76.3326 62.3064 76.0243 61.1773 75.6056 60.0939C77.8597 59.1543 80.7764 58.6335 84.4931 59.0669C92.466 59.9981 94.0285 64.9752 93.7306 67.0585C93.4306 69.1418 91.7597 70.2877 91.1993 70.6335C90.641 70.9793 90.4701 71.1002 90.516 71.3564C90.5847 71.7293 90.8431 71.7168 91.3201 71.6356C91.9764 71.5252 95.5056 69.9418 95.6576 66.096C95.8472 61.2085 91.1701 55.846 82.8847 55.8898ZM21.4326 76.6064C18.791 79.4877 15.1035 80.5752 13.5201 79.6585C11.8118 78.6689 12.4889 74.4273 15.7285 71.3689C17.7035 69.5064 20.2535 67.7898 21.9451 66.7335C22.3306 66.5023 22.8951 66.1627 23.5826 65.7502C23.6972 65.6856 23.7618 65.6502 23.7618 65.6502L23.7597 65.646C23.8931 65.5668 24.0285 65.4856 24.1681 65.4002C25.3493 69.7523 24.2056 73.5835 21.4326 76.6064ZM40.6722 63.5293C39.7535 65.771 37.8285 71.5085 36.6556 71.2002C35.6493 70.9356 35.0368 66.5752 36.4556 62.2835C37.1681 60.1231 38.6931 57.5418 39.5889 56.5398C41.0306 54.9273 42.6181 54.4002 43.0035 55.0543C43.4931 55.8877 41.2493 62.1231 40.6722 63.5293ZM56.566 71.1127C56.1764 71.3168 55.8181 71.4439 55.6535 71.346C55.5306 71.2731 55.8139 71.0043 55.8139 71.0043C55.8139 71.0043 57.8014 68.8648 58.5847 67.8918C59.041 67.3252 59.5681 66.6523 60.1431 65.9023C60.1472 65.9773 60.1493 66.0523 60.1493 66.1252C60.1451 68.6877 57.6701 70.4168 56.566 71.1127ZM68.8097 68.321C68.5181 68.1148 68.5681 67.446 69.5243 65.3606C69.8993 64.5418 70.7576 63.1648 72.2451 61.8481C72.418 62.3898 72.5222 62.9085 72.5201 63.3918C72.5014 66.6168 70.2014 67.821 68.8097 68.321Z" fill="#F06292"/>
</svg>
