<svg width="491" height="30" viewBox="0 0 491 30" fill="none" xmlns="http://www.w3.org/2000/svg">
<path d="M489.949 16.3939C490.719 15.6241 490.719 14.3759 489.949 13.6061L477.404 1.06108C476.634 0.291252 475.386 0.291252 474.616 1.06108C473.847 1.8309 473.847 3.07904 474.616 3.84886L485.768 15L474.616 26.1511C473.847 26.921 473.847 28.1691 474.616 28.9389C475.386 29.7087 476.634 29.7087 477.404 28.9389L489.949 16.3939ZM2.5 13.0287C1.4113 13.0287 0.528739 13.9113 0.528739 15C0.528739 16.0887 1.4113 16.9713 2.5 16.9713V13.0287ZM488.555 13.0287H2.5V16.9713H488.555V13.0287Z" fill="black"/>
<path d="M489.949 16.3939C490.719 15.6241 490.719 14.3759 489.949 13.6061L477.404 1.06108C476.634 0.291252 475.386 0.291252 474.616 1.06108C473.847 1.8309 473.847 3.07904 474.616 3.84886L485.768 15L474.616 26.1511C473.847 26.921 473.847 28.1691 474.616 28.9389C475.386 29.7087 476.634 29.7087 477.404 28.9389L489.949 16.3939ZM2.5 13.0287C1.4113 13.0287 0.528739 13.9113 0.528739 15C0.528739 16.0887 1.4113 16.9713 2.5 16.9713V13.0287ZM488.555 13.0287H2.5V16.9713H488.555V13.0287Z" fill="url(#paint0_linear_229_2)"/>
<defs>
<linearGradient id="paint0_linear_229_2" x1="280.208" y1="-81.4956" x2="280.208" y2="292.129" gradientUnits="userSpaceOnUse">
<stop stop-color="#FFC800"/>
<stop offset="0.800781" stop-color="#FFDB58"/>
</linearGradient>
</defs>
</svg>
