<svg width="107" height="107" viewBox="0 0 107 107" fill="none" xmlns="http://www.w3.org/2000/svg">
<path d="M53.5001 21.4089C41.0413 21.4089 32.6641 26.8459 28.364 37.722C27.9182 38.8477 29.2936 39.7728 30.183 38.9502C34.7194 34.755 39.8175 33.3662 45.4751 34.7795C49.5456 35.796 52.4546 38.7496 55.6758 42.0176C60.9188 47.3386 66.9888 53.5 80.2501 53.5C92.7089 53.5 101.088 48.0609 105.386 37.1847C105.832 36.059 104.457 35.1339 103.567 35.9565C99.0308 40.1518 93.9327 41.5428 88.2751 40.1295C84.2069 39.113 81.2978 36.1593 78.0767 32.8914C72.8314 27.5681 66.7592 21.4089 53.5001 21.4089ZM26.7501 53.5C14.2913 53.5 5.91185 58.9392 1.61401 69.8153C1.16818 70.941 2.54358 71.8661 3.43301 71.0436C7.96937 66.8483 13.0675 65.4573 18.7251 66.8728C22.7933 67.8915 25.7024 70.8429 28.9235 74.1087C34.1688 79.4319 40.241 85.5933 53.5001 85.5933C65.9589 85.5933 74.3383 80.1542 78.6362 69.2781C79.082 68.1523 77.7066 67.2272 76.8172 68.0498C72.2808 72.2451 67.1827 73.6361 61.5251 72.2206C57.4546 71.2041 54.5456 68.2504 51.3244 64.9847C46.0814 59.6614 40.0114 53.5 26.7501 53.5Z" fill="url(#paint0_linear_226_9)"/>
<defs>
<linearGradient id="paint0_linear_226_9" x1="48.7319" y1="18.3617" x2="57.2964" y2="81.4805" gradientUnits="userSpaceOnUse">
<stop stop-color="#00C1E0"/>
<stop offset="1" stop-color="#009BB8"/>
</linearGradient>
</defs>
</svg>
