<svg width="76" height="76" viewBox="0 0 76 76" fill="none" xmlns="http://www.w3.org/2000/svg">
<path d="M75.283 0.461182H0.282959V75.4612H75.283V0.461182Z" fill="url(#paint0_linear_10_80)"/>
<path d="M45.0539 33.7944H17.4226V40.5944H27.333V71.2944H35.1851V40.5944H45.0539V33.7944Z" fill="white"/>
<path d="M69.4372 42.303C69.4372 42.303 65.7143 39.8197 61.506 39.8197C57.2976 39.8197 55.7831 41.8197 55.7831 43.9572C55.7831 49.4738 71.1601 48.9218 71.1601 60.0238C71.1601 77.1259 47.7143 69.5405 47.7143 69.5405V61.3363C47.7143 61.3363 52.1976 64.7155 57.5747 64.7155C62.9518 64.7155 62.7476 61.1988 62.7476 60.7155C62.7476 55.6134 47.5081 55.6134 47.5081 44.303C47.5081 28.9259 69.7122 34.9926 69.7122 34.9926L69.4372 42.303Z" fill="white"/>
<defs>
<linearGradient id="paint0_linear_10_80" x1="19.4267" y1="-12.4722" x2="55.0246" y2="85.3299" gradientUnits="userSpaceOnUse">
<stop stop-color="#2AA4F4"/>
<stop offset="1" stop-color="#007AD9"/>
</linearGradient>
</defs>
</svg>

